<?xml version="1.0" encoding="utf-8"?>
<!-- Generator: Adobe Illustrator 25.0.0, SVG Export Plug-In . SVG Version: 6.00 Build 0)  -->
<svg version="1.1" id="Layer_1" xmlns="http://www.w3.org/2000/svg" xmlns:xlink="http://www.w3.org/1999/xlink" x="0px" y="0px"
	 viewBox="0 0 371 494.7" style="enable-background:new 0 0 371 494.7;" xml:space="preserve">
<style type="text/css">
	.st0{fill:#888888;}
</style>
<g>
	<path class="st0" d="M185.5,201.7c-16.2,0-29.4,13.1-29.4,29.4c0,0.8,0,2.3,0,3.1h58c0-0.8,0-1.5,0-3.1
		C214.9,214.1,201.7,201.7,185.5,201.7z"/>
	<path class="st0" d="M247.3,0H0v494.7h371v-371L247.3,0z M239.6,304.5H131.4v-71.1h13.9c0-0.8,0-1.5,0-3.1
		c0-22.4,17.8-40.2,40.2-40.2s40.2,17.8,40.2,40.2c0,0.8,0,2.3,0,3.1h13.9V304.5z M247.3,123.7V30.9l92.8,92.8H247.3z"/>
</g>
</svg>
